<?xml version="1.0" encoding="iso-8859-1"?>
<!-- Generator: Adobe Illustrator 19.0.0, SVG Export Plug-In . SVG Version: 6.00 Build 0)  -->
<svg version="1.1" id="Capa_1" xmlns="http://www.w3.org/2000/svg" xmlns:xlink="http://www.w3.org/1999/xlink" x="0px" y="0px"
	 viewBox="0 0 480 480" style="enable-background:new 0 0 480 480;" xml:space="preserve">
<g>
	<g>
		<path d="M428.014,464c-4.418,0-8-3.582-8-8v-40c0-13.255-10.745-24-24-24h-8V120h8v-16h-8V64h-16v40h-8
			c-2.468,0.001-4.797,1.14-6.312,3.088l-47.88,61.6l-34.528-76c-1.298-2.854-4.144-4.687-7.28-4.688h-80
			c-2.871-0.277-5.589,1.343-6.712,4l-0.144-0.096l-48,80c-1.771,2.957-1.448,6.716,0.8,9.328l44.056,51.4l-12.64,18.952
			l13.312,8.88l16-24c0.867-1.331,1.313-2.892,1.28-4.48v0.24l-15.952,239.248c-0.292,4.409,3.046,8.219,7.455,8.511
			c0.182,0.012,0.364,0.018,0.545,0.017h96v-16h-23.456l15.456-232v-59.056l14.824-7.408l9.896,21.776
			c1.159,2.547,3.565,4.304,6.344,4.632c2.777,0.306,5.516-0.839,7.248-3.032l53.6-68.912h4.088v272h-8c-13.255,0-24,10.745-24,24
			v40c0,13.255,10.745,24,24,24h64c4.418,0,8-3.582,8-8S432.432,464,428.014,464z M182.806,120.224l2.92,24.8l-7.928,11.896
			l-12.144-8.12L182.806,120.224z M194.086,226.792l-44.24-51.592l7.568-12.616l18.16,12.104c3.675,2.452,8.643,1.461,11.095-2.214
			c0-0.001,0.001-0.001,0.001-0.002l1.936-2.912l7.2,61.096C195.589,229.237,194.995,227.902,194.086,226.792z M244.526,464h-15.848
			l15.336-191.36l-16-1.28L212.63,464h-16.064l14.936-224h47.96L244.526,464z M260.014,224h-48.888l-8.8-75.016l0.368-0.544
			l-0.464-0.312L197.014,104h63V224z M276.014,155.056v-22.128l8.192,18.032L276.014,155.056z M356.014,416c0-4.418,3.582-8,8-8h32
			c4.418,0,8,3.582,8,8v8h-48V416z M364.014,464c-4.418,0-8-3.582-8-8v-16h48v16c0,2.725,0.463,5.43,1.368,8H364.014z"/>
	</g>
</g>
<g>
	<g>
		<path d="M235.35,0h-6.672c-13.343,0.026-24.245,10.661-24.6,24h-16.064v16h16v15.336c0.013,13.616,11.048,24.651,24.664,24.664
			h6.672c13.616-0.013,24.651-11.048,24.664-24.664V24.664C260.001,11.048,248.966,0.013,235.35,0z M228.678,16h6.672
			c4.496,0.031,8.211,3.516,8.528,8H220.15C220.467,19.516,224.182,16.031,228.678,16z M244.014,55.336
			c-0.004,4.783-3.881,8.66-8.664,8.664h-6.672c-4.783-0.004-8.66-3.881-8.664-8.664V40h24V55.336z"/>
	</g>
</g>
<g>
	<g>
		<rect x="84.014" y="368" width="16" height="16"/>
	</g>
</g>
<g>
	<g>
		<path d="M140.705,368.028c-0.23-0.019-0.461-0.028-0.692-0.028h-24v16h15.304l-1.336,16H62.046l-1.336-16h7.304v-16h-16
			c-4.418-0.015-8.012,3.554-8.028,7.972c-0.001,0.231,0.008,0.462,0.028,0.692l8,96c0.346,4.157,3.829,7.35,8,7.336h72
			c4.171,0.014,7.654-3.179,8-7.336l8-96C148.381,372.261,145.108,368.394,140.705,368.028z M124.654,464h-57.28l-4-48h65.28
			L124.654,464z"/>
	</g>
</g>
<g>
</g>
<g>
</g>
<g>
</g>
<g>
</g>
<g>
</g>
<g>
</g>
<g>
</g>
<g>
</g>
<g>
</g>
<g>
</g>
<g>
</g>
<g>
</g>
<g>
</g>
<g>
</g>
<g>
</g>
</svg>
